<svg width="12" height="15" viewBox="0 0 12 15" fill="none" xmlns="http://www.w3.org/2000/svg">
<path d="M5.99984 3.66664C7.41432 3.66664 8.77088 4.22854 9.77107 5.22874C10.7713 6.22893 11.3332 7.58549 11.3332 8.99997C11.3332 10.4145 10.7713 11.771 9.77107 12.7712C8.77088 13.7714 7.41432 14.3333 5.99984 14.3333C4.58535 14.3333 3.2288 13.7714 2.2286 12.7712C1.22841 11.771 0.666504 10.4145 0.666504 8.99997C0.666504 7.58549 1.22841 6.22893 2.2286 5.22874C3.2288 4.22854 4.58535 3.66664 5.99984 3.66664ZM5.99984 4.99997C4.93897 4.99997 3.92156 5.4214 3.17141 6.17155C2.42126 6.92169 1.99984 7.93911 1.99984 8.99997C1.99984 10.0608 2.42126 11.0783 3.17141 11.8284C3.92156 12.5785 4.93897 13 5.99984 13C7.0607 13 8.07812 12.5785 8.82826 11.8284C9.57841 11.0783 9.99984 10.0608 9.99984 8.99997C9.99984 7.93911 9.57841 6.92169 8.82826 6.17155C8.07812 5.4214 7.0607 4.99997 5.99984 4.99997ZM5.99984 5.99997L6.88184 7.78664L8.85317 8.07331L7.4265 9.46331L7.76317 11.4273L5.99984 10.5L4.2365 11.4266L4.57317 9.46331L3.1465 8.07264L5.11784 7.78597L5.99984 5.99997ZM9.99984 0.333308V2.33331L9.09117 3.09197C8.33713 2.69636 7.51388 2.44986 6.6665 2.36597V0.333308H9.99984ZM5.33317 0.332642V2.36597C4.48607 2.44974 3.66305 2.69601 2.90917 3.09131L1.99984 2.33331V0.333308L5.33317 0.332642Z" fill="#207544"/>
</svg>
